<svg xmlns="http://www.w3.org/2000/svg" xmlns:xlink="http://www.w3.org/1999/xlink" width="500" zoomAndPan="magnify" viewBox="0 0 375 374.999991" height="500" preserveAspectRatio="xMidYMid meet" version="1.0"><defs><g/><clipPath id="43d72b3c62"><path d="M 130.808594 94.789062 L 243.941406 94.789062 L 243.941406 207.921875 L 130.808594 207.921875 Z M 130.808594 94.789062 " clip-rule="nonzero"/></clipPath><clipPath id="449a6a5194"><path d="M 187.375 94.789062 C 156.136719 94.789062 130.808594 120.113281 130.808594 151.355469 C 130.808594 182.59375 156.136719 207.921875 187.375 207.921875 C 218.617188 207.921875 243.941406 182.59375 243.941406 151.355469 C 243.941406 120.113281 218.617188 94.789062 187.375 94.789062 Z M 187.375 94.789062 " clip-rule="nonzero"/></clipPath><linearGradient x1="-0.00000916538" gradientTransform="matrix(0.441926, 0, 0, 0.441926, 130.810166, 94.787718)" y1="128" x2="255.999979" gradientUnits="userSpaceOnUse" y2="128" id="9f1db7bc56"><stop stop-opacity="1" stop-color="rgb(31.799316%, 43.899536%, 100%)" offset="0"/><stop stop-opacity="1" stop-color="rgb(32.064819%, 43.884277%, 99.908447%)" offset="0.00390625"/><stop stop-opacity="1" stop-color="rgb(32.331848%, 43.869019%, 99.81842%)" offset="0.0078125"/><stop stop-opacity="1" stop-color="rgb(32.597351%, 43.85376%, 99.728394%)" offset="0.0117187"/><stop stop-opacity="1" stop-color="rgb(32.86438%, 43.838501%, 99.638367%)" offset="0.015625"/><stop stop-opacity="1" stop-color="rgb(33.129883%, 43.823242%, 99.54834%)" offset="0.0195312"/><stop stop-opacity="1" stop-color="rgb(33.396912%, 43.807983%, 99.458313%)" offset="0.0234375"/><stop stop-opacity="1" stop-color="rgb(33.66394%, 43.792725%, 99.36676%)" offset="0.0273438"/><stop stop-opacity="1" stop-color="rgb(33.930969%, 43.777466%, 99.276733%)" offset="0.03125"/><stop stop-opacity="1" stop-color="rgb(34.196472%, 43.762207%, 99.186707%)" offset="0.0351562"/><stop stop-opacity="1" stop-color="rgb(34.463501%, 43.746948%, 99.09668%)" offset="0.0390625"/><stop stop-opacity="1" stop-color="rgb(34.729004%, 43.731689%, 99.006653%)" offset="0.0429687"/><stop stop-opacity="1" stop-color="rgb(34.996033%, 43.716431%, 98.916626%)" offset="0.046875"/><stop stop-opacity="1" stop-color="rgb(35.261536%, 43.701172%, 98.826599%)" offset="0.0507812"/><stop stop-opacity="1" stop-color="rgb(35.528564%, 43.685913%, 98.736572%)" offset="0.0546875"/><stop stop-opacity="1" stop-color="rgb(35.794067%, 43.670654%, 98.64502%)" offset="0.0585938"/><stop stop-opacity="1" stop-color="rgb(36.061096%, 43.655396%, 98.554993%)" offset="0.0625"/><stop stop-opacity="1" stop-color="rgb(36.328125%, 43.640137%, 98.464966%)" offset="0.0664062"/><stop stop-opacity="1" stop-color="rgb(36.595154%, 43.624878%, 98.374939%)" offset="0.0703125"/><stop stop-opacity="1" stop-color="rgb(36.860657%, 43.609619%, 98.284912%)" offset="0.0742187"/><stop stop-opacity="1" stop-color="rgb(37.127686%, 43.59436%, 98.194885%)" offset="0.078125"/><stop stop-opacity="1" stop-color="rgb(37.393188%, 43.579102%, 98.104858%)" offset="0.0820312"/><stop stop-opacity="1" stop-color="rgb(37.660217%, 43.563843%, 98.014832%)" offset="0.0859375"/><stop stop-opacity="1" stop-color="rgb(37.92572%, 43.548584%, 97.923279%)" offset="0.0898437"/><stop stop-opacity="1" stop-color="rgb(38.192749%, 43.533325%, 97.833252%)" offset="0.09375"/><stop stop-opacity="1" stop-color="rgb(38.458252%, 43.518066%, 97.743225%)" offset="0.0976562"/><stop stop-opacity="1" stop-color="rgb(38.725281%, 43.502808%, 97.653198%)" offset="0.101562"/><stop stop-opacity="1" stop-color="rgb(38.99231%, 43.487549%, 97.563171%)" offset="0.105469"/><stop stop-opacity="1" stop-color="rgb(39.259338%, 43.47229%, 97.473145%)" offset="0.109375"/><stop stop-opacity="1" stop-color="rgb(39.524841%, 43.457031%, 97.381592%)" offset="0.113281"/><stop stop-opacity="1" stop-color="rgb(39.79187%, 43.441772%, 97.291565%)" offset="0.117188"/><stop stop-opacity="1" stop-color="rgb(40.057373%, 43.426514%, 97.201538%)" offset="0.121094"/><stop stop-opacity="1" stop-color="rgb(40.324402%, 43.411255%, 97.111511%)" offset="0.125"/><stop stop-opacity="1" stop-color="rgb(40.589905%, 43.395996%, 97.021484%)" offset="0.128906"/><stop stop-opacity="1" stop-color="rgb(40.856934%, 43.380737%, 96.931458%)" offset="0.132812"/><stop stop-opacity="1" stop-color="rgb(41.122437%, 43.365479%, 96.841431%)" offset="0.136719"/><stop stop-opacity="1" stop-color="rgb(41.389465%, 43.35022%, 96.751404%)" offset="0.140625"/><stop stop-opacity="1" stop-color="rgb(41.654968%, 43.334961%, 96.659851%)" offset="0.144531"/><stop stop-opacity="1" stop-color="rgb(41.921997%, 43.319702%, 96.569824%)" offset="0.148437"/><stop stop-opacity="1" stop-color="rgb(42.189026%, 43.304443%, 96.479797%)" offset="0.152344"/><stop stop-opacity="1" stop-color="rgb(42.456055%, 43.289185%, 96.389771%)" offset="0.15625"/><stop stop-opacity="1" stop-color="rgb(42.721558%, 43.273926%, 96.299744%)" offset="0.160156"/><stop stop-opacity="1" stop-color="rgb(42.988586%, 43.258667%, 96.209717%)" offset="0.164062"/><stop stop-opacity="1" stop-color="rgb(43.254089%, 43.243408%, 96.11969%)" offset="0.167969"/><stop stop-opacity="1" stop-color="rgb(43.521118%, 43.229675%, 96.029663%)" offset="0.171875"/><stop stop-opacity="1" stop-color="rgb(43.786621%, 43.214417%, 95.93811%)" offset="0.175781"/><stop stop-opacity="1" stop-color="rgb(44.05365%, 43.199158%, 95.848083%)" offset="0.179687"/><stop stop-opacity="1" stop-color="rgb(44.319153%, 43.183899%, 95.758057%)" offset="0.183594"/><stop stop-opacity="1" stop-color="rgb(44.586182%, 43.16864%, 95.66803%)" offset="0.1875"/><stop stop-opacity="1" stop-color="rgb(44.85321%, 43.153381%, 95.578003%)" offset="0.191406"/><stop stop-opacity="1" stop-color="rgb(45.120239%, 43.138123%, 95.487976%)" offset="0.195312"/><stop stop-opacity="1" stop-color="rgb(45.385742%, 43.122864%, 95.396423%)" offset="0.199219"/><stop stop-opacity="1" stop-color="rgb(45.652771%, 43.107605%, 95.306396%)" offset="0.203125"/><stop stop-opacity="1" stop-color="rgb(45.918274%, 43.092346%, 95.21637%)" offset="0.207031"/><stop stop-opacity="1" stop-color="rgb(46.185303%, 43.077087%, 95.126343%)" offset="0.210938"/><stop stop-opacity="1" stop-color="rgb(46.450806%, 43.061829%, 95.036316%)" offset="0.214844"/><stop stop-opacity="1" stop-color="rgb(46.717834%, 43.04657%, 94.946289%)" offset="0.21875"/><stop stop-opacity="1" stop-color="rgb(46.983337%, 43.031311%, 94.856262%)" offset="0.222656"/><stop stop-opacity="1" stop-color="rgb(47.250366%, 43.016052%, 94.766235%)" offset="0.226562"/><stop stop-opacity="1" stop-color="rgb(47.515869%, 43.000793%, 94.674683%)" offset="0.230469"/><stop stop-opacity="1" stop-color="rgb(47.782898%, 42.985535%, 94.584656%)" offset="0.234375"/><stop stop-opacity="1" stop-color="rgb(48.049927%, 42.970276%, 94.494629%)" offset="0.238281"/><stop stop-opacity="1" stop-color="rgb(48.316956%, 42.955017%, 94.404602%)" offset="0.242188"/><stop stop-opacity="1" stop-color="rgb(48.582458%, 42.939758%, 94.314575%)" offset="0.246094"/><stop stop-opacity="1" stop-color="rgb(48.849487%, 42.9245%, 94.224548%)" offset="0.25"/><stop stop-opacity="1" stop-color="rgb(49.11499%, 42.909241%, 94.134521%)" offset="0.253906"/><stop stop-opacity="1" stop-color="rgb(49.382019%, 42.893982%, 94.044495%)" offset="0.257813"/><stop stop-opacity="1" stop-color="rgb(49.647522%, 42.878723%, 93.952942%)" offset="0.261719"/><stop stop-opacity="1" stop-color="rgb(49.914551%, 42.863464%, 93.862915%)" offset="0.265625"/><stop stop-opacity="1" stop-color="rgb(50.180054%, 42.848206%, 93.772888%)" offset="0.269531"/><stop stop-opacity="1" stop-color="rgb(50.447083%, 42.832947%, 93.682861%)" offset="0.273438"/><stop stop-opacity="1" stop-color="rgb(50.714111%, 42.817688%, 93.592834%)" offset="0.277344"/><stop stop-opacity="1" stop-color="rgb(50.98114%, 42.802429%, 93.502808%)" offset="0.28125"/><stop stop-opacity="1" stop-color="rgb(51.246643%, 42.78717%, 93.411255%)" offset="0.285156"/><stop stop-opacity="1" stop-color="rgb(51.513672%, 42.771912%, 93.321228%)" offset="0.289062"/><stop stop-opacity="1" stop-color="rgb(51.779175%, 42.756653%, 93.231201%)" offset="0.292969"/><stop stop-opacity="1" stop-color="rgb(52.046204%, 42.741394%, 93.141174%)" offset="0.296875"/><stop stop-opacity="1" stop-color="rgb(52.311707%, 42.726135%, 93.051147%)" offset="0.300781"/><stop stop-opacity="1" stop-color="rgb(52.578735%, 42.710876%, 92.961121%)" offset="0.304688"/><stop stop-opacity="1" stop-color="rgb(52.844238%, 42.695618%, 92.871094%)" offset="0.308594"/><stop stop-opacity="1" stop-color="rgb(53.111267%, 42.680359%, 92.781067%)" offset="0.3125"/><stop stop-opacity="1" stop-color="rgb(53.37677%, 42.6651%, 92.689514%)" offset="0.316406"/><stop stop-opacity="1" stop-color="rgb(53.643799%, 42.649841%, 92.599487%)" offset="0.320312"/><stop stop-opacity="1" stop-color="rgb(53.910828%, 42.634583%, 92.50946%)" offset="0.324219"/><stop stop-opacity="1" stop-color="rgb(54.177856%, 42.619324%, 92.419434%)" offset="0.328125"/><stop stop-opacity="1" stop-color="rgb(54.443359%, 42.604065%, 92.329407%)" offset="0.332031"/><stop stop-opacity="1" stop-color="rgb(54.710388%, 42.588806%, 92.23938%)" offset="0.335938"/><stop stop-opacity="1" stop-color="rgb(54.975891%, 42.573547%, 92.149353%)" offset="0.339844"/><stop stop-opacity="1" stop-color="rgb(55.24292%, 42.558289%, 92.059326%)" offset="0.34375"/><stop stop-opacity="1" stop-color="rgb(55.508423%, 42.54303%, 91.967773%)" offset="0.347656"/><stop stop-opacity="1" stop-color="rgb(55.775452%, 42.527771%, 91.877747%)" offset="0.351562"/><stop stop-opacity="1" stop-color="rgb(56.040955%, 42.512512%, 91.78772%)" offset="0.355469"/><stop stop-opacity="1" stop-color="rgb(56.307983%, 42.497253%, 91.697693%)" offset="0.359375"/><stop stop-opacity="1" stop-color="rgb(56.575012%, 42.481995%, 91.607666%)" offset="0.363281"/><stop stop-opacity="1" stop-color="rgb(56.842041%, 42.466736%, 91.517639%)" offset="0.367188"/><stop stop-opacity="1" stop-color="rgb(57.107544%, 42.451477%, 91.426086%)" offset="0.371094"/><stop stop-opacity="1" stop-color="rgb(57.374573%, 42.436218%, 91.33606%)" offset="0.375"/><stop stop-opacity="1" stop-color="rgb(57.640076%, 42.420959%, 91.246033%)" offset="0.378906"/><stop stop-opacity="1" stop-color="rgb(57.907104%, 42.405701%, 91.156006%)" offset="0.382812"/><stop stop-opacity="1" stop-color="rgb(58.172607%, 42.390442%, 91.065979%)" offset="0.386719"/><stop stop-opacity="1" stop-color="rgb(58.439636%, 42.375183%, 90.975952%)" offset="0.390625"/><stop stop-opacity="1" stop-color="rgb(58.705139%, 42.359924%, 90.885925%)" offset="0.394531"/><stop stop-opacity="1" stop-color="rgb(58.972168%, 42.344666%, 90.795898%)" offset="0.398438"/><stop stop-opacity="1" stop-color="rgb(59.239197%, 42.329407%, 90.704346%)" offset="0.402344"/><stop stop-opacity="1" stop-color="rgb(59.506226%, 42.314148%, 90.614319%)" offset="0.40625"/><stop stop-opacity="1" stop-color="rgb(59.771729%, 42.298889%, 90.524292%)" offset="0.410156"/><stop stop-opacity="1" stop-color="rgb(60.038757%, 42.285156%, 90.434265%)" offset="0.414062"/><stop stop-opacity="1" stop-color="rgb(60.30426%, 42.269897%, 90.344238%)" offset="0.417969"/><stop stop-opacity="1" stop-color="rgb(60.571289%, 42.254639%, 90.254211%)" offset="0.421875"/><stop stop-opacity="1" stop-color="rgb(60.836792%, 42.23938%, 90.164185%)" offset="0.425781"/><stop stop-opacity="1" stop-color="rgb(61.103821%, 42.224121%, 90.074158%)" offset="0.429688"/><stop stop-opacity="1" stop-color="rgb(61.369324%, 42.208862%, 89.982605%)" offset="0.433594"/><stop stop-opacity="1" stop-color="rgb(61.636353%, 42.193604%, 89.892578%)" offset="0.4375"/><stop stop-opacity="1" stop-color="rgb(61.901855%, 42.178345%, 89.802551%)" offset="0.441406"/><stop stop-opacity="1" stop-color="rgb(62.168884%, 42.163086%, 89.712524%)" offset="0.445312"/><stop stop-opacity="1" stop-color="rgb(62.435913%, 42.147827%, 89.622498%)" offset="0.449219"/><stop stop-opacity="1" stop-color="rgb(62.702942%, 42.132568%, 89.532471%)" offset="0.453125"/><stop stop-opacity="1" stop-color="rgb(62.968445%, 42.11731%, 89.440918%)" offset="0.457031"/><stop stop-opacity="1" stop-color="rgb(63.235474%, 42.102051%, 89.350891%)" offset="0.460938"/><stop stop-opacity="1" stop-color="rgb(63.500977%, 42.086792%, 89.260864%)" offset="0.464844"/><stop stop-opacity="1" stop-color="rgb(63.768005%, 42.071533%, 89.170837%)" offset="0.46875"/><stop stop-opacity="1" stop-color="rgb(64.033508%, 42.056274%, 89.080811%)" offset="0.472656"/><stop stop-opacity="1" stop-color="rgb(64.300537%, 42.041016%, 88.990784%)" offset="0.476562"/><stop stop-opacity="1" stop-color="rgb(64.56604%, 42.025757%, 88.900757%)" offset="0.480469"/><stop stop-opacity="1" stop-color="rgb(64.833069%, 42.010498%, 88.81073%)" offset="0.484375"/><stop stop-opacity="1" stop-color="rgb(65.100098%, 41.995239%, 88.719177%)" offset="0.488281"/><stop stop-opacity="1" stop-color="rgb(65.367126%, 41.97998%, 88.62915%)" offset="0.492188"/><stop stop-opacity="1" stop-color="rgb(65.632629%, 41.964722%, 88.539124%)" offset="0.496094"/><stop stop-opacity="1" stop-color="rgb(65.899658%, 41.949463%, 88.449097%)" offset="0.5"/><stop stop-opacity="1" stop-color="rgb(66.165161%, 41.934204%, 88.35907%)" offset="0.503906"/><stop stop-opacity="1" stop-color="rgb(66.43219%, 41.918945%, 88.269043%)" offset="0.507812"/><stop stop-opacity="1" stop-color="rgb(66.697693%, 41.903687%, 88.179016%)" offset="0.511719"/><stop stop-opacity="1" stop-color="rgb(66.964722%, 41.888428%, 88.088989%)" offset="0.515625"/><stop stop-opacity="1" stop-color="rgb(67.230225%, 41.873169%, 87.997437%)" offset="0.519531"/><stop stop-opacity="1" stop-color="rgb(67.497253%, 41.85791%, 87.90741%)" offset="0.523438"/><stop stop-opacity="1" stop-color="rgb(67.762756%, 41.842651%, 87.817383%)" offset="0.527344"/><stop stop-opacity="1" stop-color="rgb(68.029785%, 41.827393%, 87.727356%)" offset="0.53125"/><stop stop-opacity="1" stop-color="rgb(68.296814%, 41.812134%, 87.637329%)" offset="0.535156"/><stop stop-opacity="1" stop-color="rgb(68.563843%, 41.796875%, 87.547302%)" offset="0.539062"/><stop stop-opacity="1" stop-color="rgb(68.829346%, 41.781616%, 87.45575%)" offset="0.542969"/><stop stop-opacity="1" stop-color="rgb(69.096375%, 41.766357%, 87.365723%)" offset="0.546875"/><stop stop-opacity="1" stop-color="rgb(69.361877%, 41.751099%, 87.275696%)" offset="0.550781"/><stop stop-opacity="1" stop-color="rgb(69.628906%, 41.73584%, 87.185669%)" offset="0.554687"/><stop stop-opacity="1" stop-color="rgb(69.894409%, 41.720581%, 87.095642%)" offset="0.558594"/><stop stop-opacity="1" stop-color="rgb(70.161438%, 41.705322%, 87.005615%)" offset="0.5625"/><stop stop-opacity="1" stop-color="rgb(70.426941%, 41.690063%, 86.915588%)" offset="0.566406"/><stop stop-opacity="1" stop-color="rgb(70.69397%, 41.674805%, 86.825562%)" offset="0.570312"/><stop stop-opacity="1" stop-color="rgb(70.960999%, 41.659546%, 86.734009%)" offset="0.574219"/><stop stop-opacity="1" stop-color="rgb(71.228027%, 41.644287%, 86.643982%)" offset="0.578125"/><stop stop-opacity="1" stop-color="rgb(71.49353%, 41.629028%, 86.553955%)" offset="0.582031"/><stop stop-opacity="1" stop-color="rgb(71.760559%, 41.61377%, 86.463928%)" offset="0.585937"/><stop stop-opacity="1" stop-color="rgb(72.026062%, 41.598511%, 86.373901%)" offset="0.589844"/><stop stop-opacity="1" stop-color="rgb(72.293091%, 41.583252%, 86.283875%)" offset="0.59375"/><stop stop-opacity="1" stop-color="rgb(72.558594%, 41.567993%, 86.193848%)" offset="0.597656"/><stop stop-opacity="1" stop-color="rgb(72.825623%, 41.552734%, 86.103821%)" offset="0.601562"/><stop stop-opacity="1" stop-color="rgb(73.091125%, 41.537476%, 86.012268%)" offset="0.605469"/><stop stop-opacity="1" stop-color="rgb(73.358154%, 41.522217%, 85.922241%)" offset="0.609375"/><stop stop-opacity="1" stop-color="rgb(73.623657%, 41.506958%, 85.832214%)" offset="0.613281"/><stop stop-opacity="1" stop-color="rgb(73.890686%, 41.491699%, 85.742188%)" offset="0.617187"/><stop stop-opacity="1" stop-color="rgb(74.157715%, 41.47644%, 85.652161%)" offset="0.621094"/><stop stop-opacity="1" stop-color="rgb(74.424744%, 41.461182%, 85.562134%)" offset="0.625"/><stop stop-opacity="1" stop-color="rgb(74.690247%, 41.445923%, 85.470581%)" offset="0.628906"/><stop stop-opacity="1" stop-color="rgb(74.957275%, 41.430664%, 85.380554%)" offset="0.632812"/><stop stop-opacity="1" stop-color="rgb(75.222778%, 41.415405%, 85.290527%)" offset="0.636719"/><stop stop-opacity="1" stop-color="rgb(75.489807%, 41.400146%, 85.2005%)" offset="0.640625"/><stop stop-opacity="1" stop-color="rgb(75.75531%, 41.384888%, 85.110474%)" offset="0.644531"/><stop stop-opacity="1" stop-color="rgb(76.022339%, 41.369629%, 85.020447%)" offset="0.648438"/><stop stop-opacity="1" stop-color="rgb(76.287842%, 41.35437%, 84.93042%)" offset="0.652344"/><stop stop-opacity="1" stop-color="rgb(76.554871%, 41.339111%, 84.840393%)" offset="0.65625"/><stop stop-opacity="1" stop-color="rgb(76.821899%, 41.323853%, 84.74884%)" offset="0.660156"/><stop stop-opacity="1" stop-color="rgb(77.088928%, 41.31012%, 84.658813%)" offset="0.664062"/><stop stop-opacity="1" stop-color="rgb(77.354431%, 41.294861%, 84.568787%)" offset="0.667969"/><stop stop-opacity="1" stop-color="rgb(77.62146%, 41.279602%, 84.47876%)" offset="0.671875"/><stop stop-opacity="1" stop-color="rgb(77.886963%, 41.264343%, 84.388733%)" offset="0.675781"/><stop stop-opacity="1" stop-color="rgb(78.153992%, 41.249084%, 84.298706%)" offset="0.679688"/><stop stop-opacity="1" stop-color="rgb(78.419495%, 41.233826%, 84.208679%)" offset="0.683594"/><stop stop-opacity="1" stop-color="rgb(78.686523%, 41.218567%, 84.118652%)" offset="0.6875"/><stop stop-opacity="1" stop-color="rgb(78.952026%, 41.203308%, 84.0271%)" offset="0.691406"/><stop stop-opacity="1" stop-color="rgb(79.219055%, 41.188049%, 83.937073%)" offset="0.695312"/><stop stop-opacity="1" stop-color="rgb(79.486084%, 41.172791%, 83.847046%)" offset="0.699219"/><stop stop-opacity="1" stop-color="rgb(79.753113%, 41.157532%, 83.757019%)" offset="0.703125"/><stop stop-opacity="1" stop-color="rgb(80.018616%, 41.142273%, 83.666992%)" offset="0.707031"/><stop stop-opacity="1" stop-color="rgb(80.285645%, 41.127014%, 83.576965%)" offset="0.710938"/><stop stop-opacity="1" stop-color="rgb(80.551147%, 41.111755%, 83.485413%)" offset="0.714844"/><stop stop-opacity="1" stop-color="rgb(80.818176%, 41.096497%, 83.395386%)" offset="0.71875"/><stop stop-opacity="1" stop-color="rgb(81.083679%, 41.081238%, 83.305359%)" offset="0.722656"/><stop stop-opacity="1" stop-color="rgb(81.350708%, 41.065979%, 83.215332%)" offset="0.726562"/><stop stop-opacity="1" stop-color="rgb(81.616211%, 41.05072%, 83.125305%)" offset="0.730469"/><stop stop-opacity="1" stop-color="rgb(81.88324%, 41.035461%, 83.035278%)" offset="0.734375"/><stop stop-opacity="1" stop-color="rgb(82.148743%, 41.020203%, 82.945251%)" offset="0.738281"/><stop stop-opacity="1" stop-color="rgb(82.415771%, 41.004944%, 82.855225%)" offset="0.742188"/><stop stop-opacity="1" stop-color="rgb(82.6828%, 40.989685%, 82.763672%)" offset="0.746094"/><stop stop-opacity="1" stop-color="rgb(82.949829%, 40.974426%, 82.673645%)" offset="0.75"/><stop stop-opacity="1" stop-color="rgb(83.215332%, 40.959167%, 82.583618%)" offset="0.753906"/><stop stop-opacity="1" stop-color="rgb(83.482361%, 40.943909%, 82.493591%)" offset="0.757812"/><stop stop-opacity="1" stop-color="rgb(83.747864%, 40.92865%, 82.403564%)" offset="0.761719"/><stop stop-opacity="1" stop-color="rgb(84.014893%, 40.913391%, 82.313538%)" offset="0.765625"/><stop stop-opacity="1" stop-color="rgb(84.280396%, 40.898132%, 82.223511%)" offset="0.769531"/><stop stop-opacity="1" stop-color="rgb(84.547424%, 40.882874%, 82.133484%)" offset="0.773438"/><stop stop-opacity="1" stop-color="rgb(84.812927%, 40.867615%, 82.041931%)" offset="0.777344"/><stop stop-opacity="1" stop-color="rgb(85.079956%, 40.852356%, 81.951904%)" offset="0.78125"/><stop stop-opacity="1" stop-color="rgb(85.346985%, 40.837097%, 81.861877%)" offset="0.785156"/><stop stop-opacity="1" stop-color="rgb(85.614014%, 40.821838%, 81.771851%)" offset="0.789062"/><stop stop-opacity="1" stop-color="rgb(85.879517%, 40.80658%, 81.681824%)" offset="0.792969"/><stop stop-opacity="1" stop-color="rgb(86.146545%, 40.791321%, 81.591797%)" offset="0.796875"/><stop stop-opacity="1" stop-color="rgb(86.412048%, 40.776062%, 81.500244%)" offset="0.800781"/><stop stop-opacity="1" stop-color="rgb(86.679077%, 40.760803%, 81.410217%)" offset="0.804688"/><stop stop-opacity="1" stop-color="rgb(86.94458%, 40.745544%, 81.32019%)" offset="0.808594"/><stop stop-opacity="1" stop-color="rgb(87.211609%, 40.730286%, 81.230164%)" offset="0.8125"/><stop stop-opacity="1" stop-color="rgb(87.477112%, 40.715027%, 81.140137%)" offset="0.816406"/><stop stop-opacity="1" stop-color="rgb(87.744141%, 40.699768%, 81.05011%)" offset="0.820312"/><stop stop-opacity="1" stop-color="rgb(88.009644%, 40.684509%, 80.960083%)" offset="0.824219"/><stop stop-opacity="1" stop-color="rgb(88.276672%, 40.66925%, 80.870056%)" offset="0.828125"/><stop stop-opacity="1" stop-color="rgb(88.543701%, 40.653992%, 80.778503%)" offset="0.832031"/><stop stop-opacity="1" stop-color="rgb(88.81073%, 40.638733%, 80.688477%)" offset="0.835938"/><stop stop-opacity="1" stop-color="rgb(89.076233%, 40.623474%, 80.59845%)" offset="0.839844"/><stop stop-opacity="1" stop-color="rgb(89.343262%, 40.608215%, 80.508423%)" offset="0.84375"/><stop stop-opacity="1" stop-color="rgb(89.608765%, 40.592957%, 80.418396%)" offset="0.847656"/><stop stop-opacity="1" stop-color="rgb(89.875793%, 40.577698%, 80.328369%)" offset="0.851562"/><stop stop-opacity="1" stop-color="rgb(90.141296%, 40.562439%, 80.238342%)" offset="0.855469"/><stop stop-opacity="1" stop-color="rgb(90.408325%, 40.54718%, 80.148315%)" offset="0.859375"/><stop stop-opacity="1" stop-color="rgb(90.673828%, 40.531921%, 80.056763%)" offset="0.863281"/><stop stop-opacity="1" stop-color="rgb(90.940857%, 40.516663%, 79.966736%)" offset="0.867188"/><stop stop-opacity="1" stop-color="rgb(91.207886%, 40.501404%, 79.876709%)" offset="0.871094"/><stop stop-opacity="1" stop-color="rgb(91.474915%, 40.486145%, 79.786682%)" offset="0.875"/><stop stop-opacity="1" stop-color="rgb(91.740417%, 40.470886%, 79.696655%)" offset="0.878906"/><stop stop-opacity="1" stop-color="rgb(92.007446%, 40.455627%, 79.606628%)" offset="0.882812"/><stop stop-opacity="1" stop-color="rgb(92.272949%, 40.440369%, 79.515076%)" offset="0.886719"/><stop stop-opacity="1" stop-color="rgb(92.539978%, 40.42511%, 79.425049%)" offset="0.890625"/><stop stop-opacity="1" stop-color="rgb(92.805481%, 40.409851%, 79.335022%)" offset="0.894531"/><stop stop-opacity="1" stop-color="rgb(93.07251%, 40.394592%, 79.244995%)" offset="0.898438"/><stop stop-opacity="1" stop-color="rgb(93.338013%, 40.379333%, 79.154968%)" offset="0.902344"/><stop stop-opacity="1" stop-color="rgb(93.605042%, 40.365601%, 79.064941%)" offset="0.90625"/><stop stop-opacity="1" stop-color="rgb(93.870544%, 40.350342%, 78.974915%)" offset="0.910156"/><stop stop-opacity="1" stop-color="rgb(94.137573%, 40.335083%, 78.884888%)" offset="0.914062"/><stop stop-opacity="1" stop-color="rgb(94.404602%, 40.319824%, 78.793335%)" offset="0.917969"/><stop stop-opacity="1" stop-color="rgb(94.671631%, 40.304565%, 78.703308%)" offset="0.921875"/><stop stop-opacity="1" stop-color="rgb(94.937134%, 40.289307%, 78.613281%)" offset="0.925781"/><stop stop-opacity="1" stop-color="rgb(95.204163%, 40.274048%, 78.523254%)" offset="0.929688"/><stop stop-opacity="1" stop-color="rgb(95.469666%, 40.258789%, 78.433228%)" offset="0.933594"/><stop stop-opacity="1" stop-color="rgb(95.736694%, 40.24353%, 78.343201%)" offset="0.9375"/><stop stop-opacity="1" stop-color="rgb(96.002197%, 40.228271%, 78.253174%)" offset="0.941406"/><stop stop-opacity="1" stop-color="rgb(96.269226%, 40.213013%, 78.163147%)" offset="0.945312"/><stop stop-opacity="1" stop-color="rgb(96.534729%, 40.197754%, 78.071594%)" offset="0.949219"/><stop stop-opacity="1" stop-color="rgb(96.801758%, 40.182495%, 77.981567%)" offset="0.953125"/><stop stop-opacity="1" stop-color="rgb(97.068787%, 40.167236%, 77.891541%)" offset="0.957031"/><stop stop-opacity="1" stop-color="rgb(97.335815%, 40.151978%, 77.801514%)" offset="0.960938"/><stop stop-opacity="1" stop-color="rgb(97.601318%, 40.136719%, 77.711487%)" offset="0.964844"/><stop stop-opacity="1" stop-color="rgb(97.868347%, 40.12146%, 77.62146%)" offset="0.96875"/><stop stop-opacity="1" stop-color="rgb(98.13385%, 40.106201%, 77.531433%)" offset="0.972656"/><stop stop-opacity="1" stop-color="rgb(98.400879%, 40.090942%, 77.441406%)" offset="0.976562"/><stop stop-opacity="1" stop-color="rgb(98.666382%, 40.075684%, 77.349854%)" offset="0.980469"/><stop stop-opacity="1" stop-color="rgb(98.933411%, 40.060425%, 77.259827%)" offset="0.984375"/><stop stop-opacity="1" stop-color="rgb(99.198914%, 40.045166%, 77.1698%)" offset="0.988281"/><stop stop-opacity="1" stop-color="rgb(99.465942%, 40.029907%, 77.079773%)" offset="0.992188"/><stop stop-opacity="1" stop-color="rgb(99.731445%, 40.014648%, 76.989746%)" offset="0.996094"/><stop stop-opacity="1" stop-color="rgb(99.998474%, 39.99939%, 76.899719%)" offset="1"/></linearGradient><clipPath id="a2b3d8129a"><path d="M 134.765625 94.789062 L 243.9375 94.789062 L 243.9375 203.960938 L 134.765625 203.960938 Z M 134.765625 94.789062 " clip-rule="nonzero"/></clipPath><clipPath id="a3fa753d0d"><path d="M 189.351562 94.789062 C 219.5 94.789062 243.9375 119.226562 243.9375 149.375 C 243.9375 179.519531 219.5 203.960938 189.351562 203.960938 C 159.203125 203.960938 134.765625 179.519531 134.765625 149.375 C 134.765625 119.226562 159.203125 94.789062 189.351562 94.789062 Z M 189.351562 94.789062 " clip-rule="nonzero"/></clipPath><clipPath id="16e53fc21c"><path d="M 153.253906 116.707031 L 225.253906 116.707031 L 225.253906 181.957031 L 153.253906 181.957031 Z M 153.253906 116.707031 " clip-rule="nonzero"/></clipPath></defs><g clip-path="url(#43d72b3c62)"><g clip-path="url(#449a6a5194)"><path fill="url(#9f1db7bc56)" d="M 130.808594 94.789062 L 130.808594 207.921875 L 243.941406 207.921875 L 243.941406 94.789062 Z M 130.808594 94.789062 " fill-rule="nonzero"/></g></g><g clip-path="url(#a2b3d8129a)"><g clip-path="url(#a3fa753d0d)"><path stroke-linecap="butt" transform="matrix(0.75, 0, 0, 0.75, 134.766104, 94.787725)" fill="none" stroke-linejoin="miter" d="M 72.780617 0.00178337 C 112.978536 0.00178337 145.561871 32.585119 145.561871 72.783038 C 145.561871 112.975749 112.978536 145.564293 72.780617 145.564293 C 32.582697 145.564293 -0.000638201 112.975749 -0.000638201 72.783038 C -0.000638201 32.585119 32.582697 0.00178337 72.780617 0.00178337 Z M 72.780617 0.00178337 " stroke="#000000" stroke-width="8" stroke-opacity="1" stroke-miterlimit="4"/></g></g><g clip-path="url(#16e53fc21c)"><path fill="#000000" d="M 206.398438 123.582031 L 190.96875 123.582031 L 190.96875 118.433594 C 190.96875 118.203125 190.925781 117.984375 190.839844 117.777344 C 190.75 117.566406 190.628906 117.378906 190.46875 117.21875 C 190.304688 117.058594 190.121094 116.933594 189.910156 116.847656 C 189.699219 116.757812 189.484375 116.714844 189.253906 116.714844 C 189.027344 116.714844 188.808594 116.757812 188.597656 116.847656 C 188.390625 116.933594 188.203125 117.058594 188.042969 117.21875 C 187.882812 117.378906 187.757812 117.566406 187.671875 117.777344 C 187.585938 117.984375 187.539062 118.203125 187.539062 118.433594 L 187.539062 123.582031 L 172.113281 123.582031 C 171.550781 123.582031 170.992188 123.636719 170.441406 123.75 C 169.890625 123.859375 169.351562 124.023438 168.832031 124.238281 C 168.3125 124.453125 167.820312 124.71875 167.351562 125.03125 C 166.882812 125.34375 166.453125 125.699219 166.054688 126.097656 C 165.65625 126.496094 165.300781 126.929688 164.988281 127.398438 C 164.675781 127.867188 164.410156 128.363281 164.195312 128.882812 C 163.980469 129.402344 163.816406 129.9375 163.707031 130.492188 C 163.597656 131.042969 163.542969 131.601562 163.539062 132.164062 L 163.539062 163.0625 C 163.542969 163.628906 163.597656 164.183594 163.707031 164.738281 C 163.816406 165.289062 163.980469 165.828125 164.195312 166.347656 C 164.410156 166.867188 164.675781 167.363281 164.988281 167.832031 C 165.300781 168.300781 165.65625 168.730469 166.054688 169.128906 C 166.453125 169.527344 166.882812 169.886719 167.351562 170.199219 C 167.820312 170.511719 168.3125 170.777344 168.832031 170.992188 C 169.351562 171.207031 169.890625 171.371094 170.441406 171.480469 C 170.992188 171.589844 171.550781 171.644531 172.113281 171.648438 L 181.480469 171.648438 L 187.828125 181.183594 C 187.90625 181.300781 188 181.40625 188.101562 181.5 C 188.207031 181.597656 188.320312 181.675781 188.445312 181.742188 C 188.570312 181.808594 188.703125 181.859375 188.839844 181.894531 C 188.976562 181.929688 189.113281 181.945312 189.253906 181.945312 C 189.394531 181.945312 189.535156 181.929688 189.671875 181.894531 C 189.808594 181.859375 189.941406 181.808594 190.0625 181.742188 C 190.1875 181.675781 190.304688 181.597656 190.40625 181.5 C 190.511719 181.40625 190.601562 181.300781 190.679688 181.183594 L 197.03125 171.648438 L 206.398438 171.648438 C 206.960938 171.644531 207.519531 171.589844 208.070312 171.480469 C 208.621094 171.371094 209.15625 171.207031 209.675781 170.992188 C 210.195312 170.777344 210.691406 170.511719 211.15625 170.199219 C 211.625 169.886719 212.058594 169.527344 212.457031 169.128906 C 212.855469 168.730469 213.210938 168.300781 213.523438 167.832031 C 213.835938 167.363281 214.097656 166.867188 214.316406 166.347656 C 214.53125 165.828125 214.691406 165.289062 214.804688 164.738281 C 214.914062 164.183594 214.96875 163.628906 214.96875 163.0625 L 214.96875 132.164062 C 214.96875 131.601562 214.914062 131.042969 214.804688 130.492188 C 214.691406 129.9375 214.53125 129.402344 214.316406 128.882812 C 214.097656 128.363281 213.835938 127.867188 213.523438 127.398438 C 213.210938 126.929688 212.855469 126.496094 212.457031 126.097656 C 212.058594 125.699219 211.625 125.34375 211.15625 125.03125 C 210.691406 124.71875 210.195312 124.453125 209.675781 124.238281 C 209.15625 124.023438 208.621094 123.859375 208.070312 123.75 C 207.519531 123.636719 206.960938 123.582031 206.398438 123.582031 Z M 211.539062 163.0625 C 211.539062 163.402344 211.507812 163.738281 211.441406 164.066406 C 211.375 164.398438 211.277344 164.722656 211.148438 165.035156 C 211.019531 165.347656 210.859375 165.644531 210.671875 165.921875 C 210.484375 166.203125 210.273438 166.464844 210.03125 166.703125 C 209.792969 166.941406 209.535156 167.15625 209.253906 167.34375 C 208.972656 167.53125 208.675781 167.691406 208.363281 167.820312 C 208.054688 167.949219 207.730469 168.046875 207.402344 168.113281 C 207.070312 168.179688 206.734375 168.214844 206.398438 168.214844 L 196.113281 168.214844 C 195.5 168.214844 195.027344 168.46875 194.6875 168.976562 L 189.253906 177.136719 L 183.824219 168.976562 C 183.484375 168.46875 183.007812 168.214844 182.398438 168.214844 L 172.113281 168.214844 C 171.773438 168.214844 171.441406 168.179688 171.109375 168.113281 C 170.777344 168.046875 170.457031 167.949219 170.144531 167.820312 C 169.832031 167.691406 169.535156 167.53125 169.257812 167.34375 C 168.976562 167.15625 168.714844 166.941406 168.476562 166.703125 C 168.238281 166.464844 168.027344 166.203125 167.835938 165.921875 C 167.648438 165.644531 167.492188 165.347656 167.363281 165.035156 C 167.234375 164.722656 167.136719 164.398438 167.070312 164.066406 C 167.003906 163.738281 166.96875 163.402344 166.96875 163.0625 L 166.96875 157.914062 L 211.539062 157.914062 Z M 211.539062 154.480469 L 166.96875 154.480469 L 166.96875 132.164062 C 166.96875 131.828125 167.003906 131.492188 167.070312 131.160156 C 167.136719 130.828125 167.234375 130.507812 167.363281 130.195312 C 167.492188 129.882812 167.648438 129.585938 167.835938 129.304688 C 168.027344 129.023438 168.238281 128.765625 168.476562 128.527344 C 168.714844 128.285156 168.976562 128.074219 169.257812 127.886719 C 169.535156 127.699219 169.832031 127.539062 170.144531 127.410156 C 170.457031 127.28125 170.777344 127.179688 171.109375 127.117188 C 171.441406 127.050781 171.773438 127.015625 172.113281 127.015625 L 206.398438 127.015625 C 206.734375 127.015625 207.070312 127.050781 207.402344 127.117188 C 207.730469 127.179688 208.054688 127.28125 208.363281 127.410156 C 208.675781 127.539062 208.972656 127.699219 209.253906 127.886719 C 209.535156 128.074219 209.792969 128.285156 210.03125 128.527344 C 210.273438 128.765625 210.484375 129.023438 210.671875 129.304688 C 210.859375 129.585938 211.019531 129.882812 211.148438 130.195312 C 211.277344 130.507812 211.375 130.828125 211.441406 131.160156 C 211.507812 131.492188 211.539062 131.828125 211.539062 132.164062 Z M 182.398438 142.464844 C 182.398438 142.921875 182.3125 143.359375 182.136719 143.777344 C 181.964844 144.199219 181.714844 144.570312 181.394531 144.890625 C 181.074219 145.214844 180.703125 145.460938 180.28125 145.636719 C 179.863281 145.8125 179.425781 145.898438 178.96875 145.898438 C 178.515625 145.898438 178.078125 145.8125 177.65625 145.636719 C 177.238281 145.460938 176.867188 145.214844 176.546875 144.890625 C 176.222656 144.570312 175.976562 144.199219 175.800781 143.777344 C 175.628906 143.359375 175.539062 142.921875 175.539062 142.464844 C 175.539062 142.007812 175.628906 141.570312 175.800781 141.152344 C 175.976562 140.730469 176.222656 140.359375 176.546875 140.039062 C 176.867188 139.714844 177.238281 139.46875 177.65625 139.292969 C 178.078125 139.117188 178.515625 139.03125 178.96875 139.03125 C 179.425781 139.03125 179.863281 139.117188 180.28125 139.292969 C 180.703125 139.46875 181.074219 139.714844 181.394531 140.039062 C 181.714844 140.359375 181.964844 140.730469 182.136719 141.152344 C 182.3125 141.570312 182.398438 142.007812 182.398438 142.464844 Z M 202.96875 142.464844 C 202.96875 142.921875 202.882812 143.359375 202.707031 143.777344 C 202.535156 144.199219 202.285156 144.570312 201.964844 144.890625 C 201.644531 145.214844 201.273438 145.460938 200.851562 145.636719 C 200.433594 145.8125 199.996094 145.898438 199.539062 145.898438 C 199.085938 145.898438 198.648438 145.8125 198.230469 145.636719 C 197.808594 145.460938 197.4375 145.214844 197.117188 144.890625 C 196.796875 144.570312 196.546875 144.199219 196.375 143.777344 C 196.199219 143.359375 196.113281 142.921875 196.113281 142.464844 C 196.113281 142.007812 196.199219 141.570312 196.375 141.152344 C 196.546875 140.730469 196.796875 140.359375 197.117188 140.039062 C 197.4375 139.714844 197.808594 139.46875 198.230469 139.292969 C 198.648438 139.117188 199.085938 139.03125 199.539062 139.03125 C 199.996094 139.03125 200.433594 139.117188 200.851562 139.292969 C 201.273438 139.46875 201.644531 139.714844 201.964844 140.039062 C 202.285156 140.359375 202.535156 140.730469 202.707031 141.152344 C 202.882812 141.570312 202.96875 142.007812 202.96875 142.464844 Z M 156.683594 135.597656 L 156.683594 149.332031 C 156.683594 149.558594 156.640625 149.777344 156.554688 149.988281 C 156.464844 150.199219 156.34375 150.382812 156.179688 150.546875 C 156.019531 150.707031 155.835938 150.828125 155.625 150.917969 C 155.414062 151.003906 155.195312 151.046875 154.96875 151.046875 C 154.742188 151.046875 154.523438 151.003906 154.3125 150.917969 C 154.101562 150.828125 153.917969 150.707031 153.757812 150.546875 C 153.597656 150.382812 153.472656 150.199219 153.386719 149.988281 C 153.296875 149.777344 153.253906 149.558594 153.253906 149.332031 L 153.253906 135.597656 C 153.253906 135.371094 153.296875 135.152344 153.386719 134.941406 C 153.472656 134.730469 153.597656 134.546875 153.757812 134.382812 C 153.917969 134.222656 154.101562 134.101562 154.3125 134.011719 C 154.523438 133.925781 154.742188 133.882812 154.96875 133.882812 C 155.195312 133.882812 155.414062 133.925781 155.625 134.011719 C 155.835938 134.101562 156.019531 134.222656 156.179688 134.382812 C 156.34375 134.546875 156.464844 134.730469 156.554688 134.941406 C 156.640625 135.152344 156.683594 135.371094 156.683594 135.597656 Z M 225.253906 135.597656 L 225.253906 149.332031 C 225.253906 149.558594 225.210938 149.777344 225.125 149.988281 C 225.039062 150.199219 224.914062 150.382812 224.753906 150.546875 C 224.59375 150.707031 224.40625 150.828125 224.195312 150.917969 C 223.988281 151.003906 223.769531 151.046875 223.539062 151.046875 C 223.3125 151.046875 223.09375 151.003906 222.886719 150.917969 C 222.675781 150.828125 222.488281 150.707031 222.328125 150.546875 C 222.167969 150.382812 222.042969 150.199219 221.957031 149.988281 C 221.871094 149.777344 221.828125 149.558594 221.828125 149.332031 L 221.828125 135.597656 C 221.828125 135.371094 221.871094 135.152344 221.957031 134.941406 C 222.042969 134.730469 222.167969 134.546875 222.328125 134.382812 C 222.488281 134.222656 222.675781 134.101562 222.886719 134.011719 C 223.09375 133.925781 223.3125 133.882812 223.539062 133.882812 C 223.769531 133.882812 223.988281 133.925781 224.195312 134.011719 C 224.40625 134.101562 224.59375 134.222656 224.753906 134.382812 C 224.914062 134.546875 225.039062 134.730469 225.125 134.941406 C 225.210938 135.152344 225.253906 135.371094 225.253906 135.597656 Z M 225.253906 135.597656 " fill-opacity="1" fill-rule="nonzero"/></g><g fill="#000000" fill-opacity="1"><g transform="translate(97.160018, 256.495791)"><g><path d="M 20.828125 -18.9375 C 20.328125 -19.851562 19.609375 -20.550781 18.671875 -21.03125 C 17.742188 -21.519531 16.644531 -21.765625 15.375 -21.765625 C 13.195312 -21.765625 11.445312 -21.046875 10.125 -19.609375 C 8.8125 -18.179688 8.15625 -16.269531 8.15625 -13.875 C 8.15625 -11.332031 8.84375 -9.34375 10.21875 -7.90625 C 11.601562 -6.476562 13.507812 -5.765625 15.9375 -5.765625 C 17.59375 -5.765625 18.988281 -6.179688 20.125 -7.015625 C 21.269531 -7.859375 22.109375 -9.066406 22.640625 -10.640625 L 14.078125 -10.640625 L 14.078125 -15.625 L 28.75 -15.625 L 28.75 -9.34375 C 28.25 -7.664062 27.398438 -6.101562 26.203125 -4.65625 C 25.003906 -3.207031 23.484375 -2.035156 21.640625 -1.140625 C 19.804688 -0.242188 17.734375 0.203125 15.421875 0.203125 C 12.679688 0.203125 10.238281 -0.394531 8.09375 -1.59375 C 5.957031 -2.789062 4.289062 -4.453125 3.09375 -6.578125 C 1.894531 -8.710938 1.296875 -11.144531 1.296875 -13.875 C 1.296875 -16.613281 1.894531 -19.050781 3.09375 -21.1875 C 4.289062 -23.332031 5.953125 -25.003906 8.078125 -26.203125 C 10.210938 -27.398438 12.644531 -28 15.375 -28 C 18.6875 -28 21.476562 -27.195312 23.75 -25.59375 C 26.03125 -23.988281 27.539062 -21.769531 28.28125 -18.9375 Z M 20.828125 -18.9375 "/></g></g></g><g fill="#000000" fill-opacity="1"><g transform="translate(127.210396, 256.495791)"><g><path d="M 15.53125 0.28125 C 12.9375 0.28125 10.550781 -0.320312 8.375 -1.53125 C 6.207031 -2.75 4.484375 -4.441406 3.203125 -6.609375 C 1.929688 -8.773438 1.296875 -11.210938 1.296875 -13.921875 C 1.296875 -16.628906 1.929688 -19.0625 3.203125 -21.21875 C 4.484375 -23.375 6.207031 -25.054688 8.375 -26.265625 C 10.550781 -27.472656 12.9375 -28.078125 15.53125 -28.078125 C 18.132812 -28.078125 20.519531 -27.472656 22.6875 -26.265625 C 24.863281 -25.054688 26.578125 -23.375 27.828125 -21.21875 C 29.078125 -19.0625 29.703125 -16.628906 29.703125 -13.921875 C 29.703125 -11.210938 29.066406 -8.773438 27.796875 -6.609375 C 26.535156 -4.441406 24.828125 -2.75 22.671875 -1.53125 C 20.515625 -0.320312 18.132812 0.28125 15.53125 0.28125 Z M 15.53125 -5.875 C 17.738281 -5.875 19.503906 -6.609375 20.828125 -8.078125 C 22.160156 -9.554688 22.828125 -11.503906 22.828125 -13.921875 C 22.828125 -16.367188 22.160156 -18.320312 20.828125 -19.78125 C 19.503906 -21.238281 17.738281 -21.96875 15.53125 -21.96875 C 13.300781 -21.96875 11.519531 -21.242188 10.1875 -19.796875 C 8.863281 -18.347656 8.203125 -16.390625 8.203125 -13.921875 C 8.203125 -11.472656 8.863281 -9.519531 10.1875 -8.0625 C 11.519531 -6.601562 13.300781 -5.875 15.53125 -5.875 Z M 15.53125 -5.875 "/></g></g></g><g fill="#000000" fill-opacity="1"><g transform="translate(158.207246, 256.495791)"><g/></g></g><g fill="#000000" fill-opacity="1"><g transform="translate(166.567725, 256.495791)"><g><path d="M 1.296875 -13.875 C 1.296875 -16.613281 1.882812 -19.050781 3.0625 -21.1875 C 4.25 -23.332031 5.898438 -25.003906 8.015625 -26.203125 C 10.140625 -27.398438 12.539062 -28 15.21875 -28 C 18.507812 -28 21.320312 -27.128906 23.65625 -25.390625 C 26 -23.660156 27.566406 -21.296875 28.359375 -18.296875 L 20.9375 -18.296875 C 20.382812 -19.453125 19.601562 -20.332031 18.59375 -20.9375 C 17.582031 -21.539062 16.429688 -21.84375 15.140625 -21.84375 C 13.066406 -21.84375 11.382812 -21.117188 10.09375 -19.671875 C 8.800781 -18.234375 8.15625 -16.300781 8.15625 -13.875 C 8.15625 -11.457031 8.800781 -9.523438 10.09375 -8.078125 C 11.382812 -6.640625 13.066406 -5.921875 15.140625 -5.921875 C 16.429688 -5.921875 17.582031 -6.222656 18.59375 -6.828125 C 19.601562 -7.429688 20.382812 -8.3125 20.9375 -9.46875 L 28.359375 -9.46875 C 27.566406 -6.46875 26 -4.101562 23.65625 -2.375 C 21.320312 -0.65625 18.507812 0.203125 15.21875 0.203125 C 12.539062 0.203125 10.140625 -0.394531 8.015625 -1.59375 C 5.898438 -2.789062 4.25 -4.453125 3.0625 -6.578125 C 1.882812 -8.710938 1.296875 -11.144531 1.296875 -13.875 Z M 1.296875 -13.875 "/></g></g></g><g fill="#000000" fill-opacity="1"><g transform="translate(196.618103, 256.495791)"><g><path d="M 26.421875 -27.6875 L 26.421875 0 L 19.671875 0 L 19.671875 -11.390625 L 9.1875 -11.390625 L 9.1875 0 L 2.4375 0 L 2.4375 -27.6875 L 9.1875 -27.6875 L 9.1875 -16.84375 L 19.671875 -16.84375 L 19.671875 -27.6875 Z M 26.421875 -27.6875 "/></g></g></g><g fill="#000000" fill-opacity="1"><g transform="translate(225.445969, 256.495791)"><g><path d="M 19.671875 -4.890625 L 9.34375 -4.890625 L 7.6875 0 L 0.625 0 L 10.640625 -27.6875 L 18.453125 -27.6875 L 28.46875 0 L 21.328125 0 Z M 17.9375 -10.09375 L 14.515625 -20.234375 L 11.125 -10.09375 Z M 17.9375 -10.09375 "/></g></g></g><g fill="#000000" fill-opacity="1"><g transform="translate(254.510442, 256.495791)"><g><path d="M 22.359375 -27.6875 L 22.359375 -22.28125 L 15.03125 -22.28125 L 15.03125 0 L 8.28125 0 L 8.28125 -22.28125 L 0.953125 -22.28125 L 0.953125 -27.6875 Z M 22.359375 -27.6875 "/></g></g></g><g fill="#000000" fill-opacity="1"><g transform="translate(118.048911, 276.682537)"><g><path d="M 0.5 -4.03125 C 0.5 -4.8125 0.675781 -5.515625 1.03125 -6.140625 C 1.382812 -6.765625 1.863281 -7.253906 2.46875 -7.609375 C 3.082031 -7.960938 3.765625 -8.140625 4.515625 -8.140625 C 5.390625 -8.140625 6.148438 -7.925781 6.796875 -7.5 C 7.453125 -7.082031 7.929688 -6.484375 8.234375 -5.703125 L 6.96875 -5.703125 C 6.75 -6.191406 6.429688 -6.566406 6.015625 -6.828125 C 5.597656 -7.085938 5.097656 -7.21875 4.515625 -7.21875 C 3.953125 -7.21875 3.445312 -7.085938 3 -6.828125 C 2.550781 -6.566406 2.195312 -6.195312 1.9375 -5.71875 C 1.6875 -5.238281 1.5625 -4.675781 1.5625 -4.03125 C 1.5625 -3.382812 1.6875 -2.820312 1.9375 -2.34375 C 2.195312 -1.863281 2.550781 -1.492188 3 -1.234375 C 3.445312 -0.972656 3.953125 -0.84375 4.515625 -0.84375 C 5.097656 -0.84375 5.597656 -0.96875 6.015625 -1.21875 C 6.429688 -1.476562 6.75 -1.851562 6.96875 -2.34375 L 8.234375 -2.34375 C 7.929688 -1.570312 7.453125 -0.976562 6.796875 -0.5625 C 6.148438 -0.144531 5.390625 0.0625 4.515625 0.0625 C 3.765625 0.0625 3.082031 -0.109375 2.46875 -0.453125 C 1.863281 -0.804688 1.382812 -1.289062 1.03125 -1.90625 C 0.675781 -2.53125 0.5 -3.238281 0.5 -4.03125 Z M 0.5 -4.03125 "/></g></g></g><g fill="#000000" fill-opacity="1"><g transform="translate(130.235474, 276.682537)"><g><path d="M 4.53125 0.078125 C 3.78125 0.078125 3.097656 -0.09375 2.484375 -0.4375 C 1.867188 -0.789062 1.382812 -1.28125 1.03125 -1.90625 C 0.675781 -2.53125 0.5 -3.238281 0.5 -4.03125 C 0.5 -4.8125 0.675781 -5.515625 1.03125 -6.140625 C 1.382812 -6.765625 1.867188 -7.25 2.484375 -7.59375 C 3.097656 -7.945312 3.78125 -8.125 4.53125 -8.125 C 5.28125 -8.125 5.960938 -7.945312 6.578125 -7.59375 C 7.191406 -7.25 7.675781 -6.765625 8.03125 -6.140625 C 8.382812 -5.523438 8.5625 -4.820312 8.5625 -4.03125 C 8.5625 -3.238281 8.382812 -2.53125 8.03125 -1.90625 C 7.675781 -1.28125 7.191406 -0.789062 6.578125 -0.4375 C 5.960938 -0.09375 5.28125 0.078125 4.53125 0.078125 Z M 4.53125 -0.828125 C 5.09375 -0.828125 5.597656 -0.957031 6.046875 -1.21875 C 6.492188 -1.476562 6.847656 -1.847656 7.109375 -2.328125 C 7.367188 -2.816406 7.5 -3.382812 7.5 -4.03125 C 7.5 -4.675781 7.367188 -5.238281 7.109375 -5.71875 C 6.847656 -6.195312 6.492188 -6.566406 6.046875 -6.828125 C 5.609375 -7.085938 5.101562 -7.21875 4.53125 -7.21875 C 3.957031 -7.21875 3.445312 -7.085938 3 -6.828125 C 2.5625 -6.566406 2.210938 -6.195312 1.953125 -5.71875 C 1.691406 -5.238281 1.5625 -4.675781 1.5625 -4.03125 C 1.5625 -3.382812 1.691406 -2.816406 1.953125 -2.328125 C 2.210938 -1.847656 2.566406 -1.476562 3.015625 -1.21875 C 3.460938 -0.957031 3.96875 -0.828125 4.53125 -0.828125 Z M 4.53125 -0.828125 "/></g></g></g><g fill="#000000" fill-opacity="1"><g transform="translate(142.583395, 276.682537)"><g><path d="M 9.046875 -7.984375 L 9.046875 0 L 7.984375 0 L 7.984375 -5.953125 L 5.34375 0 L 4.59375 0 L 1.9375 -5.96875 L 1.9375 0 L 0.890625 0 L 0.890625 -7.984375 L 2.015625 -7.984375 L 4.96875 -1.390625 L 7.921875 -7.984375 Z M 9.046875 -7.984375 "/></g></g></g><g fill="#000000" fill-opacity="1"><g transform="translate(155.795773, 276.682537)"><g><path d="M 9.046875 -7.984375 L 9.046875 0 L 7.984375 0 L 7.984375 -5.953125 L 5.34375 0 L 4.59375 0 L 1.9375 -5.96875 L 1.9375 0 L 0.890625 0 L 0.890625 -7.984375 L 2.015625 -7.984375 L 4.96875 -1.390625 L 7.921875 -7.984375 Z M 9.046875 -7.984375 "/></g></g></g><g fill="#000000" fill-opacity="1"><g transform="translate(169.008156, 276.682537)"><g><path d="M 1.921875 -8.03125 L 1.921875 -2.953125 C 1.921875 -2.234375 2.09375 -1.703125 2.4375 -1.359375 C 2.789062 -1.015625 3.273438 -0.84375 3.890625 -0.84375 C 4.503906 -0.84375 4.988281 -1.015625 5.34375 -1.359375 C 5.695312 -1.703125 5.875 -2.234375 5.875 -2.953125 L 5.875 -8.03125 L 6.921875 -8.03125 L 6.921875 -2.96875 C 6.921875 -2.289062 6.785156 -1.722656 6.515625 -1.265625 C 6.242188 -0.816406 5.878906 -0.476562 5.421875 -0.25 C 4.960938 -0.03125 4.453125 0.078125 3.890625 0.078125 C 3.316406 0.078125 2.800781 -0.03125 2.34375 -0.25 C 1.882812 -0.476562 1.519531 -0.816406 1.25 -1.265625 C 0.988281 -1.722656 0.859375 -2.289062 0.859375 -2.96875 L 0.859375 -8.03125 Z M 1.921875 -8.03125 "/></g></g></g><g fill="#000000" fill-opacity="1"><g transform="translate(180.076687, 276.682537)"><g><path d="M 7.203125 0 L 6.15625 0 L 1.9375 -6.40625 L 1.9375 0 L 0.890625 0 L 0.890625 -8.046875 L 1.9375 -8.046875 L 6.15625 -1.65625 L 6.15625 -8.046875 L 7.203125 -8.046875 Z M 7.203125 0 "/></g></g></g><g fill="#000000" fill-opacity="1"><g transform="translate(191.467944, 276.682537)"><g><path d="M 1.9375 -8.03125 L 1.9375 0 L 0.890625 0 L 0.890625 -8.03125 Z M 1.9375 -8.03125 "/></g></g></g><g fill="#000000" fill-opacity="1"><g transform="translate(197.5918, 276.682537)"><g><path d="M 0.5 -4.03125 C 0.5 -4.8125 0.675781 -5.515625 1.03125 -6.140625 C 1.382812 -6.765625 1.863281 -7.253906 2.46875 -7.609375 C 3.082031 -7.960938 3.765625 -8.140625 4.515625 -8.140625 C 5.390625 -8.140625 6.148438 -7.925781 6.796875 -7.5 C 7.453125 -7.082031 7.929688 -6.484375 8.234375 -5.703125 L 6.96875 -5.703125 C 6.75 -6.191406 6.429688 -6.566406 6.015625 -6.828125 C 5.597656 -7.085938 5.097656 -7.21875 4.515625 -7.21875 C 3.953125 -7.21875 3.445312 -7.085938 3 -6.828125 C 2.550781 -6.566406 2.195312 -6.195312 1.9375 -5.71875 C 1.6875 -5.238281 1.5625 -4.675781 1.5625 -4.03125 C 1.5625 -3.382812 1.6875 -2.820312 1.9375 -2.34375 C 2.195312 -1.863281 2.550781 -1.492188 3 -1.234375 C 3.445312 -0.972656 3.953125 -0.84375 4.515625 -0.84375 C 5.097656 -0.84375 5.597656 -0.96875 6.015625 -1.21875 C 6.429688 -1.476562 6.75 -1.851562 6.96875 -2.34375 L 8.234375 -2.34375 C 7.929688 -1.570312 7.453125 -0.976562 6.796875 -0.5625 C 6.148438 -0.144531 5.390625 0.0625 4.515625 0.0625 C 3.765625 0.0625 3.082031 -0.109375 2.46875 -0.453125 C 1.863281 -0.804688 1.382812 -1.289062 1.03125 -1.90625 C 0.675781 -2.53125 0.5 -3.238281 0.5 -4.03125 Z M 0.5 -4.03125 "/></g></g></g><g fill="#000000" fill-opacity="1"><g transform="translate(209.778361, 276.682537)"><g><path d="M 5.640625 -1.78125 L 2.140625 -1.78125 L 1.484375 0 L 0.375 0 L 3.28125 -7.984375 L 4.5 -7.984375 L 7.390625 0 L 6.28125 0 Z M 5.34375 -2.640625 L 3.890625 -6.703125 L 2.4375 -2.640625 Z M 5.34375 -2.640625 "/></g></g></g><g fill="#000000" fill-opacity="1"><g transform="translate(220.835362, 276.682537)"><g><path d="M 5.828125 -8.03125 L 5.828125 -7.1875 L 3.640625 -7.1875 L 3.640625 0 L 2.59375 0 L 2.59375 -7.1875 L 0.390625 -7.1875 L 0.390625 -8.03125 Z M 5.828125 -8.03125 "/></g></g></g><g fill="#000000" fill-opacity="1"><g transform="translate(230.359403, 276.682537)"><g><path d="M 1.9375 -8.03125 L 1.9375 0 L 0.890625 0 L 0.890625 -8.03125 Z M 1.9375 -8.03125 "/></g></g></g><g fill="#000000" fill-opacity="1"><g transform="translate(236.483259, 276.682537)"><g><path d="M 4.53125 0.078125 C 3.78125 0.078125 3.097656 -0.09375 2.484375 -0.4375 C 1.867188 -0.789062 1.382812 -1.28125 1.03125 -1.90625 C 0.675781 -2.53125 0.5 -3.238281 0.5 -4.03125 C 0.5 -4.8125 0.675781 -5.515625 1.03125 -6.140625 C 1.382812 -6.765625 1.867188 -7.25 2.484375 -7.59375 C 3.097656 -7.945312 3.78125 -8.125 4.53125 -8.125 C 5.28125 -8.125 5.960938 -7.945312 6.578125 -7.59375 C 7.191406 -7.25 7.675781 -6.765625 8.03125 -6.140625 C 8.382812 -5.523438 8.5625 -4.820312 8.5625 -4.03125 C 8.5625 -3.238281 8.382812 -2.53125 8.03125 -1.90625 C 7.675781 -1.28125 7.191406 -0.789062 6.578125 -0.4375 C 5.960938 -0.09375 5.28125 0.078125 4.53125 0.078125 Z M 4.53125 -0.828125 C 5.09375 -0.828125 5.597656 -0.957031 6.046875 -1.21875 C 6.492188 -1.476562 6.847656 -1.847656 7.109375 -2.328125 C 7.367188 -2.816406 7.5 -3.382812 7.5 -4.03125 C 7.5 -4.675781 7.367188 -5.238281 7.109375 -5.71875 C 6.847656 -6.195312 6.492188 -6.566406 6.046875 -6.828125 C 5.609375 -7.085938 5.101562 -7.21875 4.53125 -7.21875 C 3.957031 -7.21875 3.445312 -7.085938 3 -6.828125 C 2.5625 -6.566406 2.210938 -6.195312 1.953125 -5.71875 C 1.691406 -5.238281 1.5625 -4.675781 1.5625 -4.03125 C 1.5625 -3.382812 1.691406 -2.816406 1.953125 -2.328125 C 2.210938 -1.847656 2.566406 -1.476562 3.015625 -1.21875 C 3.460938 -0.957031 3.96875 -0.828125 4.53125 -0.828125 Z M 4.53125 -0.828125 "/></g></g></g><g fill="#000000" fill-opacity="1"><g transform="translate(248.831177, 276.682537)"><g><path d="M 7.203125 0 L 6.15625 0 L 1.9375 -6.40625 L 1.9375 0 L 0.890625 0 L 0.890625 -8.046875 L 1.9375 -8.046875 L 6.15625 -1.65625 L 6.15625 -8.046875 L 7.203125 -8.046875 Z M 7.203125 0 "/></g></g></g></svg>